#!OML:ASF \\sashay\E\Suitcase\Project 1\Capture day 1\Session 1\Male1.ASF
:FULLY-SPECIFIED
:DEGREES
20
root 0.980943 17.4921 -32.384 7.75083 5.57055 -1.89605
lowerback -2.72988 -1.9708 0.20544
upperback -1.82422 -2.63201 1.71082
thorax -0.269224 -1.31017 1.5718
lowerneck -17.9581 -2.65778 -4.8963
upperneck 13.7102 -2.9775 3.56414
head 7.27963 -1.35133 1.6246
rclavicle -2.14936e-015 1.82882e-014
rhumerus -42.953 -32.2586 -60.1025
rradius 17.066
rwrist 1.54822
rhand -14.472 20.3192
rfingers 7.12502
rthumb 11.674 -9.33552
lclavicle -2.14936e-015 1.82882e-014
lhumerus -36.1373 7.4194 82.416
lradius 31.377
lwrist -5.34196
lhand -3.80804 41.1815
lfingers 7.12502
lthumb 21.9383 69.9576
rfemur -11.7788 -0.217086 24.5148
rtibia 26.7394
rfoot -21.5873 -15.2753
rtoes 10.3996
lfemur -13.4985 -6.23908 -17.5896
ltibia 28.1108
lfoot -22.1946 2.55367
ltoes -6.74302
21
root 0.977161 17.4922 -32.3814 7.81344 5.56043 -1.93442
lowerback -2.82434 -1.99156 0.226659
upperback -1.80718 -2.66152 1.71724
thorax -0.198868 -1.32531 1.56171
lowerneck -17.9409 -2.73229 -4.92557
upperneck 13.5057 -3.0866 3.67456
head 7.21687 -1.39455 1.6528
rclavicle -1.74309e-014 2.5842e-015
rhumerus -42.8479 -32.3633 -60.1251
rradius 17.0268
rwrist 1.71934
rhand -14.8862 20.3148
rfingers 7.12502
rthumb 11.2745 -9.36216
lclavicle -1.74309e-014 2.5842e-015
lhumerus -36.01 7.6527 82.3554
lradius 31.3936
lwrist -5.57451
lhand -3.32013 41.3099
lfingers 7.12502
lthumb 22.4067 70.0304
rfemur -11.8154 -0.153266 24.5846
rtibia 26.713
rfoot -21.6361 -15.2422
rtoes 11.0331
lfemur -13.6057 -6.2573 -17.5184
ltibia 28.1337
lfoot -22.1941 2.62312
ltoes -6.99021
22
root 0.974123 17.4917 -32.3818 7.81652 5.5495 -1.85009
lowerback -2.81348 -1.96497 0.0638435
upperback -1.8075 -2.62232 1.67182
thorax -0.201094 -1.30468 1.60765
lowerneck -18.3215 -2.67137 -4.56042
upperneck 14.17 -2.9864 3.06544
head 7.47957 -1.38224 1.40231
rclavicle 3.71789e-014 -4.77083e-015
rhumerus -42.7881 -32.211 -60.309
rradius 17.0444
rwrist 1.53937
rhand -15.0981 20.0616
rfingers 7.12502
rthumb 11.0702 -9.62644
lclavicle 3.71789e-014 -4.77083e-015
lhumerus -35.9177 7.39325 82.4406
lradius 31.4223
lwrist -5.35972
lhand -3.40105 41.64
lfingers 7.12502
lthumb 22.329 70.3697
rfemur -11.8393 -0.111729 24.4952
rtibia 26.7196
rfoot -21.5539 -15.3276
rtoes 10.4934
lfemur -13.5838 -6.39692 -17.6052
ltibia 28.1208
lfoot -22.0486 2.57637
ltoes -5.79295
23
root 0.974966 17.4869 -32.3785 7.79655 5.47029 -1.82997
lowerback -2.76319 -1.99849 0.0999019
upperback -1.89389 -2.66605 1.61805
thorax -0.320713 -1.32643 1.53527
lowerneck -18.0084 -2.62054 -4.69669
upperneck 13.9297 -2.94868 3.38169
head 7.35293 -1.34394 1.53543
rclavicle 1.44616e-014 -1.35174e-014
rhumerus -42.9093 -32.0034 -60.3517
rradius 17.0126
rwrist 1.56423
rhand -14.9746 20.2933
rfingers 7.12502
rthumb 11.1892 -9.38835
lclavicle 1.44616e-014 -1.35174e-014
lhumerus -36.1524 7.28843 82.3969
lradius 31.5181
lwrist -5.22411
lhand -3.36127 41.8439
lfingers 7.12502
lthumb 22.3672 70.5691
rfemur -11.7751 -0.0768983 24.446
rtibia 26.7318
rfoot -21.7692 -15.1147
rtoes 11.52
lfemur -13.5357 -6.35274 -17.6416
ltibia 28.1277
lfoot -22.1604 2.63972
ltoes -6.59065
24
root 0.971816 17.4914 -32.3795 7.9198 5.53909 -1.74129
lowerback -2.85034 -2.03817 0.0409861
upperback -1.93881 -2.71785 1.53498
thorax -0.317987 -1.35212 1.47946
lowerneck -18.0857 -2.60331 -4.50869
upperneck 14.1585 -2.94771 3.22625
head 7.43592 -1.34763 1.45345
rclavicle -6.24929e-015 -1.0138e-014
rhumerus -42.8837 -31.8042 -60.5727
rradius 17.0503
rwrist 1.45076
rhand -14.8333 20.3092
rfingers 7.12502
rthumb 11.3255 -9.36505
lclavicle -6.24929e-015 -1.0138e-014
lhumerus -36.1462 7.27422 82.3137
lradius 31.5952
lwrist -5.22743
lhand -3.36686 41.5899
lfingers 7.12502
lthumb 22.3618 70.3157
rfemur -11.9114 -0.194088 24.3623
rtibia 26.7093
rfoot -21.6974 -15.03
rtoes 11.7287
lfemur -13.6795 -6.42977 -17.7053
ltibia 28.1413
lfoot -22.2181 2.77227
ltoes -6.90242
25
root 0.968758 17.4925 -32.3757 7.90564 5.48656 -1.70184
lowerback -2.90478 -1.96719 -0.156243
upperback -1.92082 -2.61947 1.56139
thorax -0.261652 -1.30139 1.61685
lowerneck -18.2373 -2.62602 -4.48197
upperneck 14.3707 -2.97266 3.16726
head 7.53135 -1.36256 1.42572
rclavicle -6.1002e-015 -1.78906e-014
rhumerus -42.9309 -32.0418 -60.231
rradius 16.9267
rwrist 1.6687
rhand -14.5363 20.2623
rfingers 7.12502
rthumb 11.612 -9.39593
lclavicle -6.1002e-015 -1.78906e-014
lhumerus -36.003 7.31054 82.4199
lradius 31.5174
lwrist -5.59748
lhand -3.25378 41.3163
lfingers 7.12502
lthumb 22.4704 70.029
rfemur -11.8502 -0.25052 24.3673
rtibia 26.7245
rfoot -21.6823 -15.117
rtoes 11.0886
lfemur -13.6056 -6.35033 -17.746
ltibia 28.1524
lfoot -22.2744 2.71611
ltoes -6.42759
26
root 0.964343 17.4947 -32.3735 7.84388 5.49886 -1.87651
lowerback -2.85883 -2.00371 0.0388026
upperback -1.91635 -2.67223 1.57321
thorax -0.289483 -1.32925 1.52017
lowerneck -18.0228 -2.61129 -4.40795
upperneck 14.2447 -2.96011 3.06464
head 7.44995 -1.36427 1.38281
rclavicle 1.06226e-015 5.46658e-015
rhumerus -42.9932 -32.2565 -60.061
rradius 16.8322
rwrist 1.9859
rhand -14.2982 20.6544
rfingers 7.12502
rthumb 11.8415 -8.99076
lclavicle 1.06226e-015 5.46658e-015
lhumerus -35.9346 7.31016 82.3671
lradius 31.4881
lwrist -5.57371
lhand -3.2066 41.0181
lfingers 7.12502
lthumb 22.5157 69.7253
rfemur -11.8335 -0.0421657 24.5759
rtibia 26.719
rfoot -21.6096 -15.1958
rtoes 11.4475
lfemur -13.5745 -6.26879 -17.5331
ltibia 28.1791
lfoot -22.3438 2.5697
ltoes -6.868
